<?xml version="1.0" standalone="no"?>
<!DOCTYPE svg PUBLIC "-//W3C//DTD SVG 20010904//EN" "http://www.w3.org/TR/2001/REC-SVG-20010904/DTD/svg10.dtd">
<!-- Created using Krita: https://krita.org -->
<svg xmlns="http://www.w3.org/2000/svg" 
    xmlns:xlink="http://www.w3.org/1999/xlink"
    xmlns:krita="http://krita.org/namespaces/svg/krita"
    xmlns:sodipodi="http://sodipodi.sourceforge.net/DTD/sodipodi-0.dtd"
    width="100%"
    height="100%"
    viewBox="0 0 12.6 12.6">
<defs/>
<path id="shape0" transform="matrix(0.12 0 0 0.12 0 0)" fill="#6990ac" stroke-opacity="0" stroke="#000000" stroke-width="0" stroke-linecap="square" stroke-linejoin="bevel" d="M1.07701 10.7692C1.76737 10.7692 3.04685 11.8462 3.66182 11.8462C4.23802 11.8462 5.59505 10.7692 6.24663 10.7692C6.89822 10.7692 8.25633 11.8462 8.83145 11.8462C9.52289 11.8462 10.797 10.7692 11.4152 10.7692C12.1055 10.738 13.4637 11.8462 14 11.8462L14 14C13.3495 14 12.0291 12.9231 11.4152 12.9231C10.8024 12.9231 9.48196 14 8.83145 14C8.21325 14 6.89822 12.9231 6.24663 12.9231C5.59074 12.9231 4.27679 14 3.66182 14C2.97254 14 1.72967 12.9231 1.07701 12.9231ZM1.07701 2.15385C2.25525 2.15385 3.23209 2.47692 3.23209 4.03846L3.23102 6.73077C3.23102 8.88462 4.84653 9.96154 5.92353 9.96154C5.92353 9.96154 5.38503 8.88462 5.38503 6.73077L5.38503 4.03846C5.38503 3.05308 4.68605 2.62985 4.30695 2.15385C5.48519 2.15385 6.46204 2.47692 6.46204 4.03846L6.46204 6.73077C6.46204 8.88462 8.07754 9.96154 9.15455 9.96154C9.15455 9.96154 8.61605 8.88462 8.61605 6.73077L8.72375 4.03846C8.76314 3.05386 7.91707 2.62985 7.53904 2.15385C8.71621 2.15385 9.69305 2.47692 9.69305 4.03846L9.69305 6.73077C9.69305 8.88462 11.3086 9.96154 12.3856 9.96154C12.3856 9.96154 11.8471 8.88462 11.8471 6.73077L11.8471 4.03846C11.8471 0.807692 8.61605 0 7.53904 0L0 0L0.000538503 2.15385Z" sodipodi:nodetypes="ccccccccccccccccccccccccccccccccccc"/>
</svg>
