<?xml version="1.0" standalone="no"?>
<!DOCTYPE svg PUBLIC "-//W3C//DTD SVG 20010904//EN" "http://www.w3.org/TR/2001/REC-SVG-20010904/DTD/svg10.dtd">
<!-- Created using Krita: https://krita.org -->
<svg xmlns="http://www.w3.org/2000/svg" 
    xmlns:xlink="http://www.w3.org/1999/xlink"
    xmlns:krita="http://krita.org/namespaces/svg/krita"
    xmlns:sodipodi="http://sodipodi.sourceforge.net/DTD/sodipodi-0.dtd"
    width="10.92pt"
    height="10.92pt"
    viewBox="0 0 10.92 10.92">
<defs/>
<path id="shape0" transform="matrix(0.12 0 0 0.12 0.12 0.12)" fill="#6990ac" stroke-opacity="0" stroke="#000000" stroke-width="0" stroke-linecap="square" stroke-linejoin="bevel" d="M4 0L0 3.5L4 7L4 5L8 5L8 7L12 3.5L8 0L8 2L4 2Z" sodipodi:nodetypes="ccccccccccc"/><path id="shape1" transform="matrix(0.12 0 0 0.12 0 1.07996304821323)" fill="#6990ac" stroke-opacity="0" stroke="#000000" stroke-width="0" stroke-linecap="square" stroke-linejoin="bevel" d="M0 0.000307932C0.7479 0.000307932 2.134 2.00031 2.8002 2.00031C3.42442 2.00031 4.8945 0.000307932 5.6004 0.000307932C6.3063 0.000307932 7.7776 2.00031 8.4006 2.00031C9.14966 2.00031 10.5299 0.000307932 11.1997 0.000307932C11.9476 -0.0286921 13.4189 2.00031 13.9999 2.00031L13.9999 5.00031C13.2952 5.00031 11.8647 3.00031 11.1997 3.00031C10.5358 3.00031 9.1054 5.00031 8.4006 5.00031C7.73088 5.00031 6.3063 3.00031 5.6004 3.00031C4.88984 3.00031 3.4664 5.00031 2.8002 5.00031C2.05347 5.00031 0.707 3.00031 0 3.00031Z" sodipodi:nodetypes="ccccccccccccc"/>
</svg>
