<?xml version="1.0" standalone="no"?>
<!DOCTYPE svg PUBLIC "-//W3C//DTD SVG 20010904//EN" "http://www.w3.org/TR/2001/REC-SVG-20010904/DTD/svg10.dtd">
<!-- Created using Krita: https://krita.org -->
<svg xmlns="http://www.w3.org/2000/svg" 
    xmlns:xlink="http://www.w3.org/1999/xlink"
    xmlns:krita="http://krita.org/namespaces/svg/krita"
    xmlns:sodipodi="http://sodipodi.sourceforge.net/DTD/sodipodi-0.dtd"
    width="10.92pt"
    height="10.92pt"
    viewBox="0 0 10.92 10.92">
<defs/>
<path id="shape0" transform="matrix(0.11999999552856 0 0 0.11999999552856 0.0379668123410695 0.0723231297671019)" fill="#6990ac" stroke-opacity="0" stroke="#000000" stroke-width="0" stroke-linecap="square" stroke-linejoin="bevel" d="M6.97624 69.536C11.448 69.536 19.7357 76.4901 23.7191 76.4901C27.4514 76.4901 36.2415 69.536 40.462 69.536C44.6827 69.536 53.4797 76.4901 57.205 76.4901C61.6837 76.4901 69.9367 69.536 73.941 69.536C78.4123 69.3345 87.2098 76.4901 90.6836 76.4901L90.6836 90.3973C86.4703 90.3973 77.9175 83.4435 73.941 83.4435C69.9716 83.4435 61.4186 90.3973 57.205 90.3973C53.2006 90.3973 44.6827 83.4435 40.462 83.4435C36.2136 83.4435 27.7025 90.3973 23.7191 90.3973C19.2544 90.3973 11.2037 83.4435 6.97624 83.4435ZM6.97624 13.9072C14.6082 13.9072 20.9356 15.9933 20.9356 26.076L20.9286 43.4601C20.9286 57.3673 31.393 64.321 38.3691 64.321C38.3691 64.321 34.881 57.3673 34.881 43.4601L34.881 26.076C34.881 19.7135 30.3535 16.9807 27.8979 13.9072C35.5298 13.9072 41.8573 15.9933 41.8573 26.076L41.8573 43.4601C41.8573 57.3673 52.3216 64.321 59.2979 64.321C59.2979 64.321 55.8097 57.3673 55.8097 43.4601L56.5073 26.076C56.7625 19.7185 51.2822 16.9807 48.8334 13.9072C56.4585 13.9072 62.7859 15.9933 62.7859 26.076L62.7859 43.4601C62.7859 57.3673 73.2505 64.321 80.2267 64.321C80.2267 64.321 76.7386 57.3673 76.7386 43.4601L76.7386 26.076C76.7386 5.21521 55.8097 0 48.8334 0L0 0L0.0034881 13.9072Z" sodipodi:nodetypes="ccccccccccccccccccccccccccccccccccc"/>
</svg>
