<?xml version="1.0" standalone="no"?>
<!DOCTYPE svg PUBLIC "-//W3C//DTD SVG 20010904//EN" "http://www.w3.org/TR/2001/REC-SVG-20010904/DTD/svg10.dtd">
<!-- Created using Krita: https://krita.org -->
<svg xmlns="http://www.w3.org/2000/svg" 
    xmlns:xlink="http://www.w3.org/1999/xlink"
    xmlns:krita="http://krita.org/namespaces/svg/krita"
    xmlns:sodipodi="http://sodipodi.sourceforge.net/DTD/sodipodi-0.dtd"
    width="14.4pt"
    height="14.4pt"
    viewBox="0 0 14.4 14.4">
<defs/>
<path id="shape0" transform="matrix(1.05494508626971 0 0 1.05494508626971 0.870329746476211 0.334945103932515)" fill="#6990ac" stroke-opacity="0" stroke="#000000" stroke-width="0" stroke-linecap="square" stroke-linejoin="bevel" d="M4 0L0 3.5L4 7L4 5L8 5L8 7L12 3.5L8 0L8 2L4 2Z" sodipodi:nodetypes="ccccccccccc"/><path id="shape1" transform="matrix(1.05494508626971 0 0 1.05494508626971 0.060001467602908 8.77418094338273)" fill="#6990ac" stroke-opacity="0" stroke="#000000" stroke-width="0" stroke-linecap="square" stroke-linejoin="bevel" d="M0 0.000307932C0.726169 0.000307932 2.072 2.00031 2.71884 2.00031C3.32492 2.00031 4.75229 0.000307932 5.43768 0.000307932C6.12307 0.000307932 7.55162 2.00031 8.15652 2.00031C8.88381 2.00031 10.2239 0.000307932 10.8743 0.000307932C11.6005 -0.0286921 13.029 2.00031 13.5931 2.00031L13.5931 5.00031C12.9089 5.00031 11.52 3.00031 10.8743 3.00031C10.2297 3.00031 8.84084 5.00031 8.15652 5.00031C7.50625 5.00031 6.12307 3.00031 5.43768 3.00031C4.74776 3.00031 3.36568 5.00031 2.71884 5.00031C1.99381 5.00031 0.686458 3.00031 0 3.00031Z" sodipodi:nodetypes="ccccccccccccc"/>
</svg>
